<svg xmlns="http://www.w3.org/2000/svg" viewBox="0 0 512 512" id="tibet">
  <path fill="#ffda44" d="M0 85.331h512v341.337H0z"></path>
  <path fill="#d80027" d="M22.261 107.592h467.478v296.815H22.261z"></path>
  <path fill="#0052b4" d="M370.111 404.4h119.628v-70.263L256 263.873l55.983 91.477zM489.739 167.017 256 263.873h233.739zM320.76 107.589 256 263.873l156.284-156.284zM191.24 107.589 256 263.873V107.589zM22.261 107.589v59.428L256 263.873 99.715 107.589zM22.261 263.873v70.263L256 263.873z"></path>
  <path fill="#ffda44" d="m258.469 266.281 48.717 33.919c8.681-12.468 12.605-28.247 9.716-44.383-5.779-32.272-36.625-53.748-68.896-47.969-32.272 5.779-53.748 36.625-47.969 68.896 2.889 16.136 12.045 29.572 24.514 38.253l33.918-48.716z"></path>
  <path fill="#f0f0f0" d="M492.208 404.299H24.73l233.739-138.018z"></path>
  <path fill="#ffda44" d="M281.971 351.718c0 14.344-11.628 18.551-25.971 18.551s-25.971-4.207-25.971-18.551 11.628-25.971 25.971-25.971c14.343.001 25.971 11.628 25.971 25.971z"></path>
  <path fill="#0052b4" d="M281.971 351.718c0 14.344-11.628 25.971-25.971 25.971s-25.971-11.628-25.971-25.971"></path>
</svg>
