<svg xmlns="http://www.w3.org/2000/svg" viewBox="0 0 512 512" id="ashoka-chakra">
  <path d="M437.02 74.981A256 256 0 0 0 74.98 437.02 256 256 0 0 0 437.02 74.98Zm-4.95 357.089A249 249 0 0 1 79.93 79.93a249 249 0 0 1 352.14 352.14Zm44.47-190.486a3.513 3.513 0 0 0-4.438-3.149 10.965 10.965 0 0 1-1.488.318 10.913 10.913 0 0 1-2.849-21.64 11.036 11.036 0 0 1 1.571-.076 3.443 3.443 0 0 0 2.695-1.216 3.5 3.5 0 0 0 .802-2.846l-.016-.102a3.167 3.167 0 0 0-.021-.116 219.897 219.897 0 0 0-7.414-27.817 3.513 3.513 0 0 0-5.122-1.879 10.965 10.965 0 0 1-1.422.733 10.913 10.913 0 1 1-8.352-20.165 11.02 11.02 0 0 1 1.525-.487 3.644 3.644 0 0 0 .62-.222 3.5 3.5 0 0 0 1.672-4.729 220.031 220.031 0 0 0-14.486-24.999 3.504 3.504 0 0 0-5.414-.492 10.816 10.816 0 0 1-1.165 1.056 10.914 10.914 0 1 1-12.011-18.142 3.669 3.669 0 0 0 .589-.42 3.5 3.5 0 0 0 .323-4.946 226.864 226.864 0 0 0-9.868-10.519 226.888 226.888 0 0 0-10.519-9.868 3.512 3.512 0 0 0-4.956.335 3.475 3.475 0 0 0-.41.578A10.914 10.914 0 1 1 379.3 77.597a3.5 3.5 0 0 0-.4-5.346l-.084-.06q-.047-.034-.095-.066a219.946 219.946 0 0 0-24.912-14.428 3.513 3.513 0 0 0-4.95 2.292 11.059 11.059 0 0 1-.488 1.526 10.914 10.914 0 1 1-19.432-9.775 3.664 3.664 0 0 0 .307-.661 3.5 3.5 0 0 0-2.186-4.46 219.89 219.89 0 0 0-27.92-7.435 3.5 3.5 0 0 0-4.176 3.48 10.914 10.914 0 1 1-21.399-2.765 3.668 3.668 0 0 0 .12-.728 3.5 3.5 0 0 0-3.27-3.711 226.175 226.175 0 0 0-14.391-.458L256 35l-.024.002c-4.814 0-9.628.153-14.392.458a3.514 3.514 0 0 0-3.149 4.439 10.914 10.914 0 1 1-21.399 2.765 3.5 3.5 0 0 0-4.176-3.48 219.946 219.946 0 0 0-27.92 7.434 3.513 3.513 0 0 0-1.879 5.122 10.914 10.914 0 1 1-19.92 8.25 3.644 3.644 0 0 0-.22-.622 3.5 3.5 0 0 0-4.73-1.67 220.031 220.031 0 0 0-24.999 14.485 3.504 3.504 0 0 0-.492 5.414 10.914 10.914 0 1 1-17.086 13.177 3.628 3.628 0 0 0-.42-.59 3.5 3.5 0 0 0-4.946-.323 226.864 226.864 0 0 0-10.519 9.868 226.864 226.864 0 0 0-9.868 10.519 3.515 3.515 0 0 0 .912 5.366A10.914 10.914 0 1 1 77.597 132.7a3.548 3.548 0 0 0-.566-.47 3.5 3.5 0 0 0-4.848.962 220.031 220.031 0 0 0-14.486 25 3.513 3.513 0 0 0 2.292 4.95 11.05 11.05 0 0 1 1.526.487 10.914 10.914 0 1 1-9.775 19.432 3.623 3.623 0 0 0-.7-.32 3.501 3.501 0 0 0-4.422 2.2 219.989 219.989 0 0 0-7.434 27.92 3.503 3.503 0 0 0 3.48 4.176 11.192 11.192 0 0 1 1.57.076 10.913 10.913 0 0 1-2.848 21.64 11.039 11.039 0 0 1-1.488-.318 3.633 3.633 0 0 0-.72-.12 3.46 3.46 0 0 0-2.536.865 3.498 3.498 0 0 0-1.182 2.404 226.435 226.435 0 0 0 0 28.832 3.513 3.513 0 0 0 4.438 3.149 10.906 10.906 0 1 1 4.337 21.322 11.304 11.304 0 0 1-1.571.077 3.25 3.25 0 0 0-.541.035 3.5 3.5 0 0 0-2.94 4.14 219.946 219.946 0 0 0 7.435 27.92 3.513 3.513 0 0 0 5.121 1.88 10.914 10.914 0 1 1 8.25 19.92 3.644 3.644 0 0 0-.62.22 3.5 3.5 0 0 0-1.672 4.73 220.031 220.031 0 0 0 14.486 24.999 3.503 3.503 0 0 0 5.413.493 10.957 10.957 0 0 1 1.166-1.057 10.913 10.913 0 1 1 12.009 18.144 3.625 3.625 0 0 0-.587.42 3.5 3.5 0 0 0-.323 4.945 227.43 227.43 0 0 0 9.868 10.518 226.864 226.864 0 0 0 10.52 9.868 3.515 3.515 0 0 0 5.365-.912 10.914 10.914 0 1 1 17.086 13.176 3.548 3.548 0 0 0-.47.566 3.5 3.5 0 0 0 .962 4.848 220.031 220.031 0 0 0 25 14.486 3.513 3.513 0 0 0 4.95-2.293 10.81 10.81 0 0 1 14.746-7.43 10.812 10.812 0 0 1 5.173 15.679 3.664 3.664 0 0 0-.32.701 3.5 3.5 0 0 0 2.199 4.422 219.916 219.916 0 0 0 27.92 7.434 3.501 3.501 0 0 0 4.176-3.48 10.914 10.914 0 1 1 21.399 2.766 3.638 3.638 0 0 0-.12.72 3.5 3.5 0 0 0 3.27 3.718 226.464 226.464 0 0 0 28.83 0 3.514 3.514 0 0 0 3.15-4.438 10.913 10.913 0 1 1 21.399-2.766 3.5 3.5 0 0 0 4.176 3.48 219.946 219.946 0 0 0 27.92-7.434 3.513 3.513 0 0 0 1.878-5.123 10.914 10.914 0 1 1 19.92-8.249 3.66 3.66 0 0 0 .244.67 3.5 3.5 0 0 0 4.707 1.623 220.031 220.031 0 0 0 24.999-14.486 3.504 3.504 0 0 0 .492-5.414 10.913 10.913 0 1 1 17.086-13.176 3.669 3.669 0 0 0 .42.589 3.5 3.5 0 0 0 4.946.323 226.838 226.838 0 0 0 10.519-9.868 226.98 226.98 0 0 0 9.924-10.583 3.467 3.467 0 0 0-.122-4.691 3.431 3.431 0 0 0-1.21-.823 9.614 9.614 0 0 1-.912-.614 10.913 10.913 0 1 1 14.453-16.259 3.503 3.503 0 0 0 5.413-.493 220.031 220.031 0 0 0 14.486-25 3.513 3.513 0 0 0-2.292-4.95 11.05 11.05 0 0 1-1.526-.487 10.913 10.913 0 0 1 8.352-20.165 11.065 11.065 0 0 1 1.425.734 3.632 3.632 0 0 0 .698.318 3.499 3.499 0 0 0 4.422-2.198 219.946 219.946 0 0 0 7.434-27.92 3.503 3.503 0 0 0-2.942-4.141 3.241 3.241 0 0 0-.538-.035 11.705 11.705 0 0 1-1.57-.077 10.914 10.914 0 1 1 4.336-21.322 3.633 3.633 0 0 0 .72.12 3.5 3.5 0 0 0 3.718-3.27 226.464 226.464 0 0 0 0-28.83Zm-33.412-89.58a212.125 212.125 0 0 1 3.168 5.867 17.915 17.915 0 0 0 13.652 32.958 212.03 212.03 0 0 1 1.908 6.389l-157.372 42.167a50.948 50.948 0 0 0-2.453-5.92Zm-28.789-39.973a17.915 17.915 0 0 0 21.763 28.25 212.266 212.266 0 0 1 3.515 5.666l-141.09 81.459a51.595 51.595 0 0 0-3.914-5.069l115.154-115.154a219.195 219.195 0 0 1 4.572 4.848Zm-42.62-36.133a17.915 17.915 0 0 0 28.25 21.763 221.03 221.03 0 0 1 4.848 4.572L289.662 217.387a51.608 51.608 0 0 0-5.068-3.914l81.46-141.09c1.905 1.146 3.799 2.311 5.665 3.515Zm-50.547-23.845a17.914 17.914 0 0 0 32.957 13.651c1.971 1.02 3.924 2.084 5.868 3.168L278.534 209.97a50.942 50.942 0 0 0-5.92-2.453l42.168-157.372c2.141.608 4.275 1.236 6.39 1.909ZM259.5 42.042c2.223.035 4.444.091 6.662.194a17.914 17.914 0 0 0 35.364 4.587c2.17.468 4.333.983 6.492 1.52l-42.163 157.354a51.129 51.129 0 0 0-6.355-.827Zm-49.026 4.78a17.914 17.914 0 0 0 35.364-4.586c2.218-.103 4.44-.16 6.662-.195V204.87a51.128 51.128 0 0 0-6.355.827L203.982 48.343a212.897 212.897 0 0 1 6.492-1.52Zm-52.603 18.882a17.914 17.914 0 0 0 32.957-13.652c2.115-.672 4.249-1.3 6.39-1.908l42.167 157.372a50.917 50.917 0 0 0-5.92 2.453L152.003 68.873a212.2 212.2 0 0 1 5.868-3.169Zm-45.84 31.957a17.915 17.915 0 0 0 28.25-21.763 212.97 212.97 0 0 1 5.666-3.515l81.458 141.09a51.646 51.646 0 0 0-5.067 3.914L107.183 102.233a219.16 219.16 0 0 1 4.848-4.572Zm-36.134 42.62a17.915 17.915 0 0 0 21.764-28.25 220.566 220.566 0 0 1 4.572-4.848l115.154 115.154a51.598 51.598 0 0 0-3.914 5.069l-141.09-81.46a212.66 212.66 0 0 1 3.514-5.664Zm-23.844 50.547a17.914 17.914 0 0 0 13.651-32.957c1.02-1.971 2.084-3.924 3.168-5.868l141.097 81.462a50.93 50.93 0 0 0-2.453 5.92L50.144 197.218a212 212 0 0 1 1.909-6.39Zm-9.818 55.01a17.914 17.914 0 0 0 4.588-35.364c.468-2.17.984-4.333 1.52-6.492l157.354 42.163a51.134 51.134 0 0 0-.827 6.355H42.04c.036-2.223.093-4.447.195-6.662Zm6.108 62.18a213.168 213.168 0 0 1-1.52-6.492 17.914 17.914 0 0 0-4.588-35.364 220.62 220.62 0 0 1-.194-6.662H204.87a51.134 51.134 0 0 0 .827 6.355Zm20.53 51.979a212.125 212.125 0 0 1-3.169-5.868 17.914 17.914 0 0 0-13.652-32.957 212.47 212.47 0 0 1-1.908-6.39l157.372-42.167a50.975 50.975 0 0 0 2.453 5.92Zm28.788 39.972a17.915 17.915 0 0 0-21.764-28.25 213.008 213.008 0 0 1-3.514-5.666l141.09-81.459a51.574 51.574 0 0 0 3.914 5.069L102.233 404.817a220.261 220.261 0 0 1-4.572-4.848Zm42.62 36.133a17.915 17.915 0 0 0-28.25-21.763 221.03 221.03 0 0 1-4.848-4.572l115.155-115.154a51.57 51.57 0 0 0 5.068 3.914l-81.46 141.09a212.219 212.219 0 0 1-5.665-3.515Zm50.548 23.846a17.915 17.915 0 0 0-32.958-13.652 211.532 211.532 0 0 1-5.868-3.169l81.462-141.096a50.904 50.904 0 0 0 5.92 2.453l-42.167 157.372a212.193 212.193 0 0 1-6.389-1.908Zm61.671 10.01a219.908 219.908 0 0 1-6.662-.193 17.915 17.915 0 0 0-35.365-4.588c-2.17-.468-4.333-.983-6.49-1.52l42.162-157.354a51.132 51.132 0 0 0 6.355.827ZM211.737 256A44.263 44.263 0 1 1 256 300.263 44.313 44.313 0 0 1 211.737 256Zm89.79 209.177a17.915 17.915 0 0 0-35.366 4.588c-2.215.102-4.438.158-6.661.194V307.13a51.131 51.131 0 0 0 6.355-.827l42.163 157.354a212.88 212.88 0 0 1-6.491 1.52Zm52.602-18.881a17.915 17.915 0 0 0-32.958 13.652c-2.115.672-4.248 1.3-6.389 1.908l-42.167-157.372a50.946 50.946 0 0 0 5.92-2.453l81.462 141.096a211.56 211.56 0 0 1-5.868 3.169Zm45.84-31.957a17.915 17.915 0 0 0-28.25 21.763 212.97 212.97 0 0 1-5.666 3.515l-81.459-141.09a51.608 51.608 0 0 0 5.068-3.914l115.155 115.154a219.16 219.16 0 0 1-4.848 4.572Zm36.134-42.62a17.915 17.915 0 0 0-21.764 28.25 220.152 220.152 0 0 1-4.572 4.848L294.613 289.663a51.564 51.564 0 0 0 3.914-5.069l141.09 81.46a213.003 213.003 0 0 1-3.514 5.664Zm23.845-50.548a17.915 17.915 0 0 0-13.652 32.958 212.125 212.125 0 0 1-3.168 5.868L302.03 278.535a50.975 50.975 0 0 0 2.453-5.92l157.372 42.167a212.174 212.174 0 0 1-1.908 6.389Zm9.817-55.01a17.915 17.915 0 0 0-4.588 35.365 212.81 212.81 0 0 1-1.52 6.492l-157.354-42.163a51.134 51.134 0 0 0 .827-6.355h162.83a220.862 220.862 0 0 1-.195 6.661ZM307.13 252.5a51.122 51.122 0 0 0-.827-6.355l157.354-42.163a212.76 212.76 0 0 1 1.52 6.491 17.915 17.915 0 0 0 4.588 35.366c.102 2.214.159 4.438.194 6.661Z"></path>
</svg>
